<svg height="81.41" viewBox="0 0 244.48 81.41" width="244.48" xmlns="http://www.w3.org/2000/svg" xmlns:xlink="http://www.w3.org/1999/xlink"><clipPath id="a" transform="translate(-2.51 -2.81)"><path d="m0 0h247v86.38h-247z"/></clipPath><g clip-path="url(#a)"><path d="m37.37 14.21a14.74 14.74 0 0 0 -24.09 8.17h28.87a14.8 14.8 0 0 0 -4.78-8.17" transform="translate(-2.51 -2.81)"/><path d="m25.28 25.3h-11.47a1.07 1.07 0 0 0 -.91 1v23.37a1.43 1.43 0 0 0 .77 1.27.24.24 0 0 1 .13.22v6l1.81-1.71h9.69v-4.3a.25.25 0 0 1 .13-.22 1.43 1.43 0 0 0 .77-1.27v-23.3a1.07 1.07 0 0 0 -.92-1.06" transform="translate(-2.51 -2.81)"/><path d="m41.61 25.3h-11.47a1.07 1.07 0 0 0 -.91 1v23.37a1.43 1.43 0 0 0 .77 1.27.25.25 0 0 1 .13.22v6l1.81-1.71h9.69v-4.3a.25.25 0 0 1 .13-.22 1.43 1.43 0 0 0 .77-1.27v-23.3a1.07 1.07 0 0 0 -.92-1.06" transform="translate(-2.51 -2.81)"/><path d="m10.22 71.62a45.37 45.37 0 0 0 17.58 6.92 45.37 45.37 0 0 0 17.59-6.92c3.52-2.48 7.71-6.58 7.71-12.1v-1.34h-6.64v4.76a.24.24 0 0 1 -.24.24h-4.34a.24.24 0 0 1 -.24-.24v-4.76h-11.51v4.76a.24.24 0 0 1 -.25.24h-4.34a.24.24 0 0 1 -.24-.24v-4.76h-11.5v4.76a.24.24 0 0 1 -.24.24h-4.35a.24.24 0 0 1 -.21-.24v-4.76h-6.49v1.34c0 5.51 4.19 9.62 7.71 12.1" fill="#ba1f31" transform="translate(-2.51 -2.81)"/><path d="m9 51.16a.25.25 0 0 1 .13-.22 1.43 1.43 0 0 0 .77-1.27v-23.31a1.07 1.07 0 0 0 -.9-1.06.24.24 0 0 1 -.21-.24v-2.44a.25.25 0 0 1 .21-.24h1.76a17.23 17.23 0 0 1 33.95 0h1.76a.24.24 0 0 1 .24.25v2.43a.24.24 0 0 1 -.21.24 1.07 1.07 0 0 0 -.92 1v23.37a1.43 1.43 0 0 0 .77 1.27.24.24 0 0 1 .13.22v6l1.81-1.71h4.81v-52.64h-50.59v52.65h6.49z" transform="translate(-2.51 -2.81)"/><path d="m20.1 71.74v-4.66l-2.46.17v.32h.06a1.12 1.12 0 0 1 .8.2.68.68 0 0 1 .16.53v3.44c0 .32-.31.39-1 .41v.33h3.4v-.33c-.67 0-1-.1-1-.41" fill="#fff" transform="translate(-2.51 -2.81)"/><path d="m22.93 69.07c.16-.65.33-.84 1.1-.84h2l-2.89 4v.3h1.12l1.1-2.2 1.52-2.69v-.54h-4.21l-.05 2h.31" fill="#fff" transform="translate(-2.51 -2.81)"/><path d="m31.19 69.42h.07c.71-.27 1.07-.65 1.07-1.15s-.62-1.29-2-1.29-2.1.66-2.1 1.68a1.53 1.53 0 0 0 .9 1.32h.06-.06c-.7.28-1.06.69-1.06 1.23 0 .88.83 1.38 2.28 1.38 1.23 0 2.15-.73 2.15-1.69 0-.64-.41-1.13-1.24-1.49h-.07m-1-2.1a.93.93 0 0 1 1 .93 1.43 1.43 0 0 1 -.41 1c-.71-.26-1.4-.57-1.4-1.2a.76.76 0 0 1 .83-.72zm.13 4.95a1.14 1.14 0 0 1 -1.15-1.13 1.31 1.31 0 0 1 .38-.94l.29.1c1 .34 1.39.63 1.39 1.12a.84.84 0 0 1 -.89.86z" fill="#fff" transform="translate(-2.51 -2.81)"/><path d="m36.34 69.23a2.91 2.91 0 0 0 -1.28.26v-.05l.06-1.27h3l.08-1.1h-3.62l-.11 2.69.27.21a2.28 2.28 0 0 1 1.19-.33c.72 0 1.14.46 1.14 1.25s-.38 1.34-1.13 1.34a1.63 1.63 0 0 1 -.76-.19.77.77 0 0 0 .4-.66.67.67 0 0 0 -.69-.72.72.72 0 0 0 -.77.74c0 .78.8 1.24 2.14 1.24a1.89 1.89 0 0 0 2.15-1.78c0-1.18-1.06-1.61-2.06-1.61" fill="#fff" transform="translate(-2.51 -2.81)"/><path d="m51.62 73h-.62v-.41h1.7v.41h-.61v1.64h-.47zm1.51-.41h.49l.54.87.54-.87h.48v2.05h-.44v-1.41l-.57.9-.57-.9v1.39h-.44z" transform="translate(-2.51 -2.81)"/><g fill="#ba1f31"><path d="m136.87 31.45c-9.74 0-14.84 6.91-14.84 13.73 0 7.83 6.16 13.73 14.33 13.73 8.44 0 14.57-5.91 14.57-14.06 0-7.64-6-13.41-14-13.41m7.35 14.56c0 6.53-2.81 10.74-7.16 10.74-4.92 0-8.49-5.14-8.49-12.23 0-6.39 3.06-10.85 7.44-10.85 4.99-.04 8.21 4.81 8.21 12.34z" transform="translate(-2.51 -2.81)"/><path d="m94.38 47.42v10l-1 .23a39.4 39.4 0 0 1 -8.38 1.26c-9.76 0-16.06-5.29-16.06-13.49 0-9.6 8.32-14 16-14a40.63 40.63 0 0 1 8.53 1.39v6.29s-2.42-5.47-8.35-5.47a9.62 9.62 0 0 0 -8.94 6.73 14.39 14.39 0 0 0 -.7 4.38c0 8.3 5 12 9.87 12a5.08 5.08 0 0 0 2.29-.46 2.23 2.23 0 0 0 .86-2v-5.94a4.59 4.59 0 0 0 -2.46-4.42h10.12s-1.78.44-1.78 3.5" transform="translate(-2.51 -2.81)"/><path d="m203.35 47.42v10l-1 .23a39.4 39.4 0 0 1 -8.35 1.26c-9.76 0-16.06-5.29-16.06-13.49 0-9.6 8.32-14 16-14a40.63 40.63 0 0 1 8.53 1.39v6.29s-2.42-5.47-8.35-5.47a9.62 9.62 0 0 0 -8.94 6.73 14.4 14.4 0 0 0 -.7 4.38c0 8.3 5 12 9.87 12a5.08 5.08 0 0 0 2.29-.46 2.23 2.23 0 0 0 .86-2v-5.94a4.59 4.59 0 0 0 -2.46-4.42h10.08s-1.78.44-1.78 3.5" transform="translate(-2.51 -2.81)"/><path d="m111.14 56a8.54 8.54 0 0 1 -3.33-.36c-.71-.3-.83-1.23-.83-3.06v-6.46h3.23c2.92 0 4.91.16 5.5 1.58v-5.7c-.56 1.41-2.46 1.66-5.5 1.66h-3.21v-8.24c0-1.15 0-1.15 1.45-1.15h3.89c2.39 0 3.56.4 4.54 1.6a11.69 11.69 0 0 1 1.6 3v-6.87h-19.62c.62.41 2.22 1.88 2.22 5.94v14.27c0 5-2.46 6.08-2.46 6.08h20.31v-7.35a20.22 20.22 0 0 1 -2.43 3.68c-1.34 1.51-4.86 1.41-5.37 1.41" transform="translate(-2.51 -2.81)"/><path d="m167.55 39.62a5.58 5.58 0 0 1 -1.87 4.56c-.76.67-2.05 1-3.94 1h-.74v-9.43c0-.75.08-1.11.27-1.28a2.9 2.9 0 0 1 1.75-.38c2.21 0 4.56 1.46 4.56 5.54m5.19 12.77c-1.16-1.9-2.92-4.75-3.79-6.36 1.87-.78 4.71-2.59 4.71-6.39 0-.19 0-.38 0-.58a6.44 6.44 0 0 0 -2.79-5.48c-1.66-1.12-3.69-1.53-7.5-1.53h-10.4c.62.41 2.23 1.88 2.23 5.94v14.21c0 5-2.46 6.08-2.46 6.08h10.62s-2.46-1-2.46-6.08v-5h.55a2.59 2.59 0 0 1 2.53 1.53c.4.71.79 1.43 1.17 2.13.74 1.37 1.7 3.19 2.4 4.26 1.65 2.52 3.23 3.61 8.29 3.45 0 0 .86 0 1.52-.09.03.02-1.7-1.24-4.65-6.1z" transform="translate(-2.51 -2.81)"/><path d="m218.46 58.29s-2.46-1-2.46-6.08v-14.21c0-4.06 1.61-5.53 2.22-5.94h-10.15c.62.41 2.22 1.88 2.22 5.94v14.21c0 5-2.46 6.08-2.46 6.08z" transform="translate(-2.51 -2.81)"/><path d="m247 58.29c-2.25-1.39-2.86-2.72-4.15-6.09-2.18-5.63-5.19-13.65-7.57-20l-.06-.15h-2.79l-8.35 20.28c-.92 2.26-2.55 5-4.44 6h7.36c-1.57-.66-1.22-2.72-.57-4.34.12-.34.63-1.6 1.3-3.23h8.27l1.25 3.46a3.61 3.61 0 0 1 -.83 4.11h10.58m-18.22-10.2c1.59-3.84 3.38-8.13 3.38-8.13l2.95 8.13z" transform="translate(-2.51 -2.81)"/></g><path d="m73.27 21.34v-5.77c0-.53-.17-.68-1.45-.73v-.77h5.91v.77c-.84.05-1.34.17-1.34.73v5.85c0 2 .91 2.85 2.76 2.85a2.38 2.38 0 0 0 1.76-.63 3.3 3.3 0 0 0 .79-2.56v-3.67c0-1.64-.36-2.42-2-2.58v-.77h4.65v.77c-1.53.19-1.6.94-1.6 2.58v4c0 2.61-1.43 4.2-4.5 4.2s-5-1.19-5-4.23" transform="translate(-2.51 -2.81)"/><path d="m90.44 17.31h-.1v4.69c0 1.65.21 2.42 1.86 2.58v.77h-4.58v-.77c1.53-.17 1.72-.9 1.72-2.58v-5.54c0-.9-.33-1.59-1.72-1.62v-.77h4.07l5.91 7.35h.1v-4c0-1.64-.36-2.42-2-2.58v-.77h4.6v.77c-1.53.19-1.6.94-1.6 2.58v8h-1.7l-6.51-8.08" transform="translate(-2.51 -2.81)"/><path d="m103.64 24.53c1.27-.05 1.48-.2 1.48-.73v-8.23c0-.53-.21-.68-1.48-.73v-.77h6.08v.77c-1.28.05-1.48.2-1.48.73v8.22c0 .53.21.68 1.48.73v.77h-6.08v-.77" transform="translate(-2.51 -2.81)"/><path d="m114.53 15.95c-.28-.72-.59-.9-1.67-1.11v-.77h6.39v.77c-1.5.09-1.71.39-1.5 1l2.43 6.92h.17l2-5.82c.52-1.48.52-1.84-1.1-2.08v-.77h4.36v.77c-1.17.24-1.33.65-1.88 2.06l-3.24 8.49h-2.45l-3.55-9.45" transform="translate(-2.51 -2.81)"/><path d="m128.29 24.53c1.28-.05 1.45-.2 1.45-.73v-8.23c0-.53-.17-.68-1.45-.73v-.77h10.06l.16 4h-.93c-.67-1.93-1.33-3.24-3.43-3.24h-1.29v4.33h.26c1.1 0 1.48-.15 2.08-1.67h.8v4.21h-.77c-.6-1.52-1-1.72-2.08-1.72h-.26v4.42h1.11c2.51 0 3.2-1.35 4-3.53h.93l-.17 4.33h-10.47v-.77" transform="translate(-2.51 -2.81)"/><path d="m147.67 23.79c0 .56.5.68 1.34.73v.77h-5.91v-.77c1.27-.05 1.45-.2 1.45-.73v-8.22c0-.53-.17-.68-1.45-.73v-.77h6.12c3.45 0 4.46 1.31 4.46 2.73s-.77 2.42-3.39 2.81v.05c2.41 0 3.08 1 3.22 2.25l.14 1.23c.12 1.14.29 1.31 1.52 1.38v.77c-.67.05-1.24.07-1.76.07-2.52 0-2.89-.65-3-2l-.1-1.31c-.07-1.64-.43-2-2.21-2h-.43v3.72m.69-4.5c1.77 0 2.14-.56 2.14-2.27 0-1.4-.48-2.13-2.26-2.13h-.57v4.4z" transform="translate(-2.51 -2.81)"/><path d="m158.87 21.58h.93c.88 1.88 2.07 3.14 3.5 3.14a1.64 1.64 0 0 0 1.83-1.64c0-1.09-.62-1.54-2.48-2.08s-3.7-1.42-3.7-3.51 1.59-3.68 4-3.68a5.4 5.4 0 0 1 2.36.55l.47-.61h.88v3.55h-.93c-.83-1.62-1.79-2.63-3-2.63a1.46 1.46 0 0 0 -1.55 1.5c0 1.09.67 1.45 2.64 2 1.59.48 3.36 1.28 3.36 3.39s-1.27 4-4.25 4a6.36 6.36 0 0 1 -2.76-.55l-.47.61h-.88v-4.04" transform="translate(-2.51 -2.81)"/><path d="m170.93 24.53c1.28-.05 1.48-.2 1.48-.73v-8.23c0-.53-.21-.68-1.48-.73v-.77h6.07v.77c-1.27.05-1.48.2-1.48.73v8.22c0 .53.21.68 1.48.73v.77h-6.08v-.77" transform="translate(-2.51 -2.81)"/><path d="m183.3 24.53c1.43 0 1.71-.2 1.71-.73v-8.9h-.14c-1.26 0-2 1.21-2.86 3.24h-.9l.09-4h10.73l.09 4h-.9c-.84-2.1-1.6-3.24-2.86-3.24h-.14v8.9c0 .53.28.7 1.71.73v.77h-6.53z" transform="translate(-2.51 -2.81)"/><path d="m204.07 16.77c.79-1.31.69-1.77-.67-1.93v-.77h4.19v.77c-1 .15-1.38.6-2.12 1.76l-2.34 3.67v3.53c0 .53.21.68 1.48.73v.77h-6.08v-.77c1.28-.05 1.48-.2 1.48-.73v-3.16l-2.86-4.76a1.83 1.83 0 0 0 -1.74-1v-.77h6.2v.77c-1.46.07-1.45.37-1.07 1.06l1.93 3.5 1.6-2.63" transform="translate(-2.51 -2.81)"/><path d="m215.89 19.72c0-3.6 2.29-5.92 5.81-5.92s5.8 2.25 5.8 5.85-2.29 5.92-5.8 5.92-5.81-2.23-5.81-5.85m8.27 0c0-3.65-.71-5-2.53-5s-2.39 1.38-2.39 5 .71 5 2.53 5 2.38-1.37 2.38-5.04z" transform="translate(-2.51 -2.81)"/><path d="m230.67 24.53c1.27-.05 1.45-.2 1.45-.73v-8.23c0-.53-.17-.68-1.45-.73v-.77h10.06v4h-.93c-.72-2-1.52-3.24-3.62-3.24h-.95v4.47h.29c1.1 0 1.48-.12 2.05-1.54h.78v4.14h-.78c-.6-1.52-.95-1.72-2.05-1.72h-.29v3.62c0 .56 0 .72 1.55.77v.73h-6.12v-.77" transform="translate(-2.51 -2.81)"/><path d="m72.5 75.24a5.79 5.79 0 0 1 5.88-6 6.06 6.06 0 0 1 2.82.73l.49-.73h.68v4h-.76c-.68-2.06-1.8-3.3-3.28-3.3-1.73 0-3.26 1.68-3.26 5s1.85 5 3.64 5c1.58 0 2.69-.92 3.49-2.53l.65.31a5 5 0 0 1 -4.75 3.28c-3.54 0-5.59-2.41-5.59-5.76" transform="translate(-2.51 -2.81)"/><path d="m84.07 76.83a3.81 3.81 0 0 1 4-4.1 3.7 3.7 0 0 1 4 4 3.83 3.83 0 0 1 -4 4.15 3.74 3.74 0 0 1 -4-4.08m5.85 0c0-2.35-.65-3.4-1.9-3.4s-1.77 1.05-1.77 3.4.66 3.44 1.92 3.44 1.75-1.09 1.75-3.45z" transform="translate(-2.51 -2.81)"/><path d="m93.13 80.12c1 0 1.19-.19 1.19-.6v-9.05c0-.51-.26-.82-1.26-.83v-.64l3.28-.14v10.67c0 .41.2.58 1.19.6v.61h-4.4v-.61" transform="translate(-2.51 -2.81)"/><path d="m98.32 80.12c1 0 1.19-.19 1.19-.6v-9.05c0-.51-.26-.82-1.26-.83v-.64l3.28-.14v10.67c0 .41.2.58 1.19.6v.61h-4.4v-.61" transform="translate(-2.51 -2.81)"/><path d="m103.66 76.91c0-2.52 1.56-4.18 3.91-4.18s3.5 1.87 3.37 4h-5.14v.1c0 1.82.82 3.08 2.41 3.08a3 3 0 0 0 2.33-1.39l.42.36a3.77 3.77 0 0 1 -3.4 2 3.63 3.63 0 0 1 -3.91-4m2.16-.8 3-.05c.17-1.46-.31-2.67-1.39-2.67-.9.03-1.48.93-1.6 2.75z" transform="translate(-2.51 -2.81)"/><path d="m117.25 73c.39-.77.9-1.45 1.79-1.45a.92.92 0 0 1 1 .9.77.77 0 0 1 -.78.8.76.76 0 0 1 -.75-.85 1.53 1.53 0 0 0 -.82.82 2.31 2.31 0 0 1 1.31 2.16c0 1.62-1.38 2.62-3.28 2.62a5.64 5.64 0 0 1 -.93-.09c-.63.24-1 .46-1 .77s.34.61 1.84.61h.77c2.28 0 3.32.63 3.32 2.11s-1.56 2.77-4.29 2.77c-2.11 0-3.52-.78-3.52-1.8 0-.75.68-1.39 2-1.58v-.09c-1.05-.32-1.39-.78-1.39-1.45s.48-1.12 1.43-1.56a2.36 2.36 0 0 1 -1.56-2.3c0-1.63 1.39-2.65 3.32-2.65a4.45 4.45 0 0 1 1.53.26m1.07 9.06c0-.65-.44-1-2.47-1h-1.41c-.71.2-1.14.54-1.14 1.14 0 .75.83 1.36 2.6 1.36 1.48.03 2.43-.56 2.43-1.45zm-1.31-6.65c0-1.26-.51-2-1.39-2s-1.24.56-1.24 2 .53 2 1.39 2 1.24-.55 1.24-2z" transform="translate(-2.51 -2.81)"/><path d="m120.73 76.91c0-2.52 1.56-4.18 3.91-4.18s3.5 1.87 3.37 4h-5.14v.1c0 1.82.82 3.08 2.41 3.08a3 3 0 0 0 2.33-1.39l.43.36a3.77 3.77 0 0 1 -3.4 2 3.63 3.63 0 0 1 -3.91-4m2.16-.8 3-.05c.17-1.46-.31-2.67-1.39-2.67-.91.03-1.5.93-1.61 2.75z" transform="translate(-2.51 -2.81)"/><path d="m132.59 76.83a3.81 3.81 0 0 1 4-4.1 3.7 3.7 0 0 1 4 4 3.83 3.83 0 0 1 -4 4.15 3.74 3.74 0 0 1 -4-4.08m5.85 0c0-2.35-.65-3.4-1.9-3.4s-1.77 1.05-1.77 3.4.66 3.44 1.92 3.44 1.75-1.09 1.75-3.45z" transform="translate(-2.51 -2.81)"/><path d="m141.79 80.12c1 0 1.19-.19 1.19-.6v-5.64h-1.46v-.65l1.46-.31v-.37a4 4 0 0 1 .94-2.91 3.21 3.21 0 0 1 2.38-.87c1.58 0 2.33.7 2.33 1.48a1 1 0 0 1 -1.05 1.1 1.08 1.08 0 0 1 -1.11-1.22 3 3 0 0 1 .1-.65 1 1 0 0 0 -.43-.1.86.86 0 0 0 -.66.27c-.31.31-.48.9-.48 2.13v1.22h2.14v.88h-2.14v5.68c0 .41.32.54 1.65.6v.61h-4.86v-.61" transform="translate(-2.51 -2.81)"/><path d="m151.31 80.07c1.34-.05 1.6-.2 1.6-.73v-8.42c0-.53-.26-.68-1.6-.73v-.65h5.1c3.49 0 4.68 1.41 4.68 3.16s-1.28 3.3-4.75 3.3h-1.09v3.32c0 .56.19.7 1.7.75v.65h-5.65v-.66m4.95-4.76c1.89 0 2.38-.85 2.38-2.57 0-1.48-.54-2.48-2.33-2.48h-1.05v5.05z" transform="translate(-2.51 -2.81)"/><path d="m161.92 80.12c1 0 1.19-.19 1.19-.6v-9.05c0-.51-.24-.82-1.26-.83v-.64l3.28-.14v5.24a5.13 5.13 0 0 1 3-1.31c1.33 0 2 .87 2 2.45v4.28c0 .41.2.58 1.19.6v.61h-4.18v-.61c.71 0 1-.19 1-.6v-3.77c0-1.17-.44-1.63-1.34-1.63a3.14 3.14 0 0 0 -1.65.56v4.85c0 .41.24.58 1 .6v.61h-4.18v-.61" transform="translate(-2.51 -2.81)"/><path d="m172.26 78.93a2.09 2.09 0 0 1 1.07-1.82 18 18 0 0 1 3.67-1v-.77c0-1.46-.46-1.9-1.43-1.9a1.42 1.42 0 0 0 -.9.27 2 2 0 0 1 .22.83 1.08 1.08 0 0 1 -1.17 1.11 1 1 0 0 1 -1.11-1.09c0-1 1.34-1.79 3.44-1.79s2.94.92 2.94 2.74v3.49c0 .83.19 1 1.21.83l.15.48a3.6 3.6 0 0 1 -1.79.53c-1 0-1.26-.39-1.46-1.21h-.1a3.6 3.6 0 0 1 -2.55 1.24 2 2 0 0 1 -2.23-2m4.78.13v-2.24c-2 .32-2.57.7-2.57 1.73a1.14 1.14 0 0 0 1.17 1.28 1.82 1.82 0 0 0 1.4-.77z" transform="translate(-2.51 -2.81)"/><path d="m180.8 80.12c1 0 1.19-.19 1.19-.6v-5.1c0-.51-.22-.82-1.19-.83v-.59l3.18-.14v1.38a3.15 3.15 0 0 1 2.3-1.43 1.32 1.32 0 0 1 1.45 1.36 1.14 1.14 0 0 1 -1.11 1.24 1 1 0 0 1 -1.16-1 2.25 2.25 0 0 1 0-.32 2 2 0 0 0 -1.48.82v4.66c0 .41.29.56 1.5.6v.61h-4.68v-.61" transform="translate(-2.51 -2.81)"/><path d="m193.59 80.12c.73 0 .87-.19.87-.6v-3.77c0-1.17-.44-1.63-1.34-1.63a2.64 2.64 0 0 0 -1.5.56v4.85c0 .41.14.58.87.6v.61h-4.09v-.61c1 0 1.19-.19 1.19-.6v-5.1c0-.51-.22-.82-1.19-.83v-.6l3.18-.14v1.24a4.76 4.76 0 0 1 2.87-1.31 1.81 1.81 0 0 1 1.9 1.51 4.67 4.67 0 0 1 3-1.51c1.34 0 2 .87 2 2.45v4.28c0 .41.2.58 1.19.6v.61h-4.1v-.61c.73 0 .88-.19.88-.6v-3.77c0-1.17-.37-1.63-1.28-1.63a3.05 3.05 0 0 0 -1.6.71v.46 4.23c0 .41.17.58 1 .6v.61h-3.84v-.61" transform="translate(-2.51 -2.81)"/><path d="m203.47 78.93a2.09 2.09 0 0 1 1.07-1.82 18 18 0 0 1 3.67-1v-.77c0-1.46-.46-1.9-1.43-1.9a1.42 1.42 0 0 0 -.9.27 2 2 0 0 1 .22.83 1.08 1.08 0 0 1 -1.17 1.11 1 1 0 0 1 -1.1-1.09c0-1 1.34-1.79 3.43-1.79s2.94.92 2.94 2.74v3.49c0 .83.19 1 1.21.83l.15.48a3.6 3.6 0 0 1 -1.79.53c-1 0-1.26-.39-1.46-1.21h-.07a3.6 3.6 0 0 1 -2.55 1.24 2 2 0 0 1 -2.23-2m4.74 0v-2.11c-2 .32-2.57.7-2.57 1.73a1.14 1.14 0 0 0 1.17 1.28 1.82 1.82 0 0 0 1.41-.77z" transform="translate(-2.51 -2.81)"/><path d="m212 76.91a3.94 3.94 0 0 1 4-4.18c2.14 0 3 1.09 3 2a1.09 1.09 0 0 1 -1 1.16 1 1 0 0 1 -1.16-1 1.22 1.22 0 0 1 .51-1 1.4 1.4 0 0 0 -1.17-.53c-1.17 0-2 1.05-2 3.26 0 1.89.83 3.18 2.48 3.18a2.8 2.8 0 0 0 2.18-1.17l.43.36a3.74 3.74 0 0 1 -3.33 1.9 3.69 3.69 0 0 1 -3.89-4" transform="translate(-2.51 -2.81)"/><path d="m221 74.53a1.45 1.45 0 0 0 -1.34-1.05v-.6h4.34v.6c-1 .09-1.16.36-1 .85l1.75 4.22 1.46-3.49c.43-1 .27-1.41-.85-1.58v-.6h3.28v.6c-.53.07-1 .39-1.36 1.26l-2.94 6.73c-.92 2.14-1.8 2.75-2.81 2.75s-1.6-.58-1.6-1.33a1.13 1.13 0 0 1 1.12-1.17 1.06 1.06 0 0 1 1.07 1.11 1.46 1.46 0 0 1 -.07.39c.48-.07.85-.56 1.62-2.36l.07-.17z" transform="translate(-2.51 -2.81)"/><g fill="#ba1f31"><path d="m136.87 31.45c-9.74 0-14.84 6.91-14.84 13.73 0 7.83 6.16 13.73 14.33 13.73 8.44 0 14.57-5.91 14.57-14.06 0-7.64-6-13.41-14-13.41m7.35 14.56c0 6.53-2.81 10.74-7.16 10.74-4.92 0-8.49-5.14-8.49-12.23 0-6.39 3.06-10.85 7.44-10.85 4.99-.04 8.21 4.81 8.21 12.34z" transform="translate(-2.51 -2.81)"/><path d="m94.38 47.42v10l-1 .23a39.4 39.4 0 0 1 -8.38 1.26c-9.76 0-16.06-5.29-16.06-13.49 0-9.6 8.32-14 16-14a40.63 40.63 0 0 1 8.53 1.39v6.29s-2.42-5.47-8.35-5.47a9.62 9.62 0 0 0 -8.94 6.73 14.39 14.39 0 0 0 -.7 4.38c0 8.3 5 12 9.87 12a5.08 5.08 0 0 0 2.29-.46 2.23 2.23 0 0 0 .86-2v-5.94a4.59 4.59 0 0 0 -2.46-4.42h10.12s-1.78.44-1.78 3.5" transform="translate(-2.51 -2.81)"/><path d="m203.35 47.42v10l-1 .23a39.4 39.4 0 0 1 -8.35 1.26c-9.76 0-16.06-5.29-16.06-13.49 0-9.6 8.32-14 16-14a40.63 40.63 0 0 1 8.53 1.39v6.29s-2.42-5.47-8.35-5.47a9.62 9.62 0 0 0 -8.94 6.73 14.4 14.4 0 0 0 -.7 4.38c0 8.3 5 12 9.87 12a5.08 5.08 0 0 0 2.29-.46 2.23 2.23 0 0 0 .86-2v-5.94a4.59 4.59 0 0 0 -2.46-4.42h10.08s-1.78.44-1.78 3.5" transform="translate(-2.51 -2.81)"/><path d="m111.14 56a8.54 8.54 0 0 1 -3.33-.36c-.71-.3-.83-1.23-.83-3.06v-6.46h3.23c2.92 0 4.91.16 5.5 1.58v-5.7c-.56 1.41-2.46 1.66-5.5 1.66h-3.21v-8.24c0-1.15 0-1.15 1.45-1.15h3.89c2.39 0 3.56.4 4.54 1.6a11.69 11.69 0 0 1 1.6 3v-6.87h-19.62c.62.41 2.22 1.88 2.22 5.94v14.27c0 5-2.46 6.08-2.46 6.08h20.31v-7.35a20.22 20.22 0 0 1 -2.43 3.68c-1.34 1.51-4.86 1.41-5.37 1.41" transform="translate(-2.51 -2.81)"/><path d="m167.55 39.62a5.58 5.58 0 0 1 -1.87 4.56c-.76.67-2.05 1-3.94 1h-.74v-9.43c0-.75.08-1.11.27-1.28a2.9 2.9 0 0 1 1.75-.38c2.21 0 4.56 1.46 4.56 5.54m5.19 12.77c-1.16-1.9-2.92-4.75-3.79-6.36 1.87-.78 4.71-2.59 4.71-6.39 0-.19 0-.38 0-.58a6.44 6.44 0 0 0 -2.79-5.48c-1.66-1.12-3.69-1.53-7.5-1.53h-10.4c.62.41 2.23 1.88 2.23 5.94v14.21c0 5-2.46 6.08-2.46 6.08h10.62s-2.46-1-2.46-6.08v-5h.55a2.59 2.59 0 0 1 2.53 1.53c.4.71.79 1.43 1.17 2.13.74 1.37 1.7 3.19 2.4 4.26 1.65 2.52 3.23 3.61 8.29 3.45 0 0 .86 0 1.52-.09.03.02-1.7-1.24-4.65-6.1z" transform="translate(-2.51 -2.81)"/><path d="m218.46 58.29s-2.46-1-2.46-6.08v-14.21c0-4.06 1.61-5.53 2.22-5.94h-10.15c.62.41 2.22 1.88 2.22 5.94v14.21c0 5-2.46 6.08-2.46 6.08z" transform="translate(-2.51 -2.81)"/><path d="m247 58.29c-2.25-1.39-2.86-2.72-4.15-6.09-2.18-5.63-5.19-13.65-7.57-20l-.06-.15h-2.79l-8.35 20.28c-.92 2.26-2.55 5-4.44 6h7.36c-1.57-.66-1.22-2.72-.57-4.34.12-.34.63-1.6 1.3-3.23h8.27l1.25 3.46a3.61 3.61 0 0 1 -.83 4.11h10.58m-18.22-10.2c1.59-3.84 3.38-8.13 3.38-8.13l2.95 8.13z" transform="translate(-2.51 -2.81)"/></g><path d="m73.27 21.34v-5.77c0-.53-.17-.68-1.45-.73v-.77h5.91v.77c-.84.05-1.34.17-1.34.73v5.85c0 2 .91 2.85 2.76 2.85a2.38 2.38 0 0 0 1.76-.63 3.3 3.3 0 0 0 .79-2.56v-3.67c0-1.64-.36-2.42-2-2.58v-.77h4.65v.77c-1.53.19-1.6.94-1.6 2.58v4c0 2.61-1.43 4.2-4.5 4.2s-5-1.19-5-4.23" transform="translate(-2.51 -2.81)"/><path d="m90.44 17.31h-.1v4.69c0 1.65.21 2.42 1.86 2.58v.77h-4.58v-.77c1.53-.17 1.72-.9 1.72-2.58v-5.54c0-.9-.33-1.59-1.72-1.62v-.77h4.07l5.91 7.35h.1v-4c0-1.64-.36-2.42-2-2.58v-.77h4.6v.77c-1.53.19-1.6.94-1.6 2.58v8h-1.7l-6.51-8.08" transform="translate(-2.51 -2.81)"/><path d="m103.64 24.53c1.27-.05 1.48-.2 1.48-.73v-8.23c0-.53-.21-.68-1.48-.73v-.77h6.08v.77c-1.28.05-1.48.2-1.48.73v8.22c0 .53.21.68 1.48.73v.77h-6.08v-.77" transform="translate(-2.51 -2.81)"/><path d="m114.53 15.95c-.28-.72-.59-.9-1.67-1.11v-.77h6.39v.77c-1.5.09-1.71.39-1.5 1l2.43 6.92h.17l2-5.82c.52-1.48.52-1.84-1.1-2.08v-.77h4.36v.77c-1.17.24-1.33.65-1.88 2.06l-3.24 8.49h-2.45l-3.55-9.45" transform="translate(-2.51 -2.81)"/><path d="m128.29 24.53c1.28-.05 1.45-.2 1.45-.73v-8.23c0-.53-.17-.68-1.45-.73v-.77h10.06l.16 4h-.93c-.67-1.93-1.33-3.24-3.43-3.24h-1.29v4.33h.26c1.1 0 1.48-.15 2.08-1.67h.8v4.21h-.77c-.6-1.52-1-1.72-2.08-1.72h-.26v4.42h1.11c2.51 0 3.2-1.35 4-3.53h.93l-.17 4.33h-10.47v-.77" transform="translate(-2.51 -2.81)"/><path d="m147.67 23.79c0 .56.5.68 1.34.73v.77h-5.91v-.77c1.27-.05 1.45-.2 1.45-.73v-8.22c0-.53-.17-.68-1.45-.73v-.77h6.12c3.45 0 4.46 1.31 4.46 2.73s-.77 2.42-3.39 2.81v.05c2.41 0 3.08 1 3.22 2.25l.14 1.23c.12 1.14.29 1.31 1.52 1.38v.77c-.67.05-1.24.07-1.76.07-2.52 0-2.89-.65-3-2l-.1-1.31c-.07-1.64-.43-2-2.21-2h-.43v3.72m.69-4.5c1.77 0 2.14-.56 2.14-2.27 0-1.4-.48-2.13-2.26-2.13h-.57v4.4z" transform="translate(-2.51 -2.81)"/><path d="m158.87 21.58h.93c.88 1.88 2.07 3.14 3.5 3.14a1.64 1.64 0 0 0 1.83-1.64c0-1.09-.62-1.54-2.48-2.08s-3.7-1.42-3.7-3.51 1.59-3.68 4-3.68a5.4 5.4 0 0 1 2.36.55l.47-.61h.88v3.55h-.93c-.83-1.62-1.79-2.63-3-2.63a1.46 1.46 0 0 0 -1.55 1.5c0 1.09.67 1.45 2.64 2 1.59.48 3.36 1.28 3.36 3.39s-1.27 4-4.25 4a6.36 6.36 0 0 1 -2.76-.55l-.47.61h-.88v-4.04" transform="translate(-2.51 -2.81)"/><path d="m170.93 24.53c1.28-.05 1.48-.2 1.48-.73v-8.23c0-.53-.21-.68-1.48-.73v-.77h6.07v.77c-1.27.05-1.48.2-1.48.73v8.22c0 .53.21.68 1.48.73v.77h-6.08v-.77" transform="translate(-2.51 -2.81)"/><path d="m183.3 24.53c1.43 0 1.71-.2 1.71-.73v-8.9h-.14c-1.26 0-2 1.21-2.86 3.24h-.9l.09-4h10.73l.09 4h-.9c-.84-2.1-1.6-3.24-2.86-3.24h-.14v8.9c0 .53.28.7 1.71.73v.77h-6.53z" transform="translate(-2.51 -2.81)"/><path d="m204.07 16.77c.79-1.31.69-1.77-.67-1.93v-.77h4.19v.77c-1 .15-1.38.6-2.12 1.76l-2.34 3.67v3.53c0 .53.21.68 1.48.73v.77h-6.08v-.77c1.28-.05 1.48-.2 1.48-.73v-3.16l-2.86-4.76a1.83 1.83 0 0 0 -1.74-1v-.77h6.2v.77c-1.46.07-1.45.37-1.07 1.06l1.93 3.5 1.6-2.63" transform="translate(-2.51 -2.81)"/><path d="m215.89 19.72c0-3.6 2.29-5.92 5.81-5.92s5.8 2.25 5.8 5.85-2.29 5.92-5.8 5.92-5.81-2.23-5.81-5.85m8.27 0c0-3.65-.71-5-2.53-5s-2.39 1.38-2.39 5 .71 5 2.53 5 2.38-1.37 2.38-5.04z" transform="translate(-2.51 -2.81)"/><path d="m230.67 24.53c1.27-.05 1.45-.2 1.45-.73v-8.23c0-.53-.17-.68-1.45-.73v-.77h10.06v4h-.93c-.72-2-1.52-3.24-3.62-3.24h-.95v4.47h.29c1.1 0 1.48-.12 2.05-1.54h.78v4.14h-.78c-.6-1.52-.95-1.72-2.05-1.72h-.29v3.62c0 .56 0 .72 1.55.77v.73h-6.12v-.77" transform="translate(-2.51 -2.81)"/></g></svg>