<svg id="Layer_1" data-name="Layer 1" xmlns="http://www.w3.org/2000/svg" viewBox="0 0 444.43 50.59"><defs><style>.cls-1{fill:#fff;}.cls-2{fill:#231f20;}.cls-3{fill:#ba0c2f;}</style></defs><title>uga-logo-white</title><path class="cls-1" d="M356,15.65h0c-7.47,0-11.38,5.3-11.38,10.53,0,6,4.72,10.53,11,10.53,6.48,0,11.18-4.53,11.18-10.78C366.73,20.07,362.1,15.65,356,15.65Zm5.68,11.14c0,5-2.16,7.95-5.49,7.95-3.77,0-6.51-3.65-6.51-9.09,0-4.9,2.35-8,5.7-8h0C359.18,17.61,361.65,21,361.65,26.78Z"/><path class="cls-1" d="M259.58,15.65h0c-7.47,0-11.38,5.3-11.38,10.53,0,6,4.72,10.53,11,10.53,6.48,0,11.18-4.53,11.18-10.78C270.34,20.07,265.72,15.65,259.58,15.65Zm5.68,11.14c0,5-2.16,8.24-5.49,8.24-3.77,0-6.51-3.95-6.51-9.38,0-4.9,2.35-8.32,5.7-8.32h0C262.8,17.32,265.26,21,265.26,26.78Z"/><path class="cls-1" d="M320.62,27.9v7.68l-0.8.18a30.21,30.21,0,0,1-6.4,1c-7.48,0-12.32-4.06-12.32-10.35,0-7.37,6.38-10.72,12.31-10.72a31.16,31.16,0,0,1,6.55,1.06v4.8a7.32,7.32,0,0,0-6.4-3.9,7.11,7.11,0,0,0-6.86,4.87,11,11,0,0,0-.54,3.36c0,6.37,3.8,8.92,7.57,8.92a3.9,3.9,0,0,0,1.76-.35,1.71,1.71,0,0,0,.66-1.57V28.61a3.52,3.52,0,0,0-1.89-3.39H322S320.62,25.56,320.62,27.9Z"/><path class="cls-1" d="M408.85,27.9v7.68l-0.8.18a30.21,30.21,0,0,1-6.4,1c-7.48,0-12.32-4.06-12.32-10.35,0-7.37,6.38-10.72,12.31-10.72a31.16,31.16,0,0,1,6.55,1.06v4.8a7.32,7.32,0,0,0-6.4-3.9,7.11,7.11,0,0,0-6.86,4.87,11,11,0,0,0-.54,3.36c0,6.37,3.8,8.92,7.57,8.92a3.9,3.9,0,0,0,1.76-.35,1.71,1.71,0,0,0,.66-1.57V28.61a3.52,3.52,0,0,0-1.89-3.39h7.73S408.85,25.56,408.85,27.9Z"/><path class="cls-1" d="M119,16.11c1.21,0.5.93,2.09,0.44,3.33-0.25.69-3.05,7.41-4.35,10.52-0.48-1.34-3.64-10.22-3.81-10.7a2.77,2.77,0,0,1,.63-3.15h-8.08c1.72,1.07,2.19,2.09,3.18,4.67,1.67,4.32,4,10.47,5.81,15.34l0,0.12H115l6.4-15.56c0.7-1.74,2-3.83,3.41-4.57H119Z"/><path class="cls-1" d="M140.27,33.13c-1,1.16-3.73,1.08-4.12,1.08a6.54,6.54,0,0,1-2.55-.28C133.05,33.71,133,33,133,31.58V27.2h2.48c2.24,0,3.77.13,4.22,1.21v-4.7c-0.43,1.08-1.89,1.27-4.22,1.27H133V18.52a0.41,0.41,0,0,1,.41-0.41h3.69c1.83,0,2.73.3,3.48,1.23a9,9,0,0,1,1.23,2.31V16.11h-15c0.47,0.32,1.71,1.44,1.71,4.56V31.57c0,3.86-1.88,4.66-1.88,4.66h15.58V30.31A15.51,15.51,0,0,1,140.27,33.13Z"/><path class="cls-1" d="M334.72,34.21a6.54,6.54,0,0,1-2.55-.28c-0.54-.23-0.64-0.94-0.64-2.35V27.2H334c2.24,0,3.77.13,4.22,1.21v-4.7C337.8,24.79,336.34,25,334,25h-2.48V19c0-.88,0-0.88,1.11-0.88h3c1.83,0,2.73.3,3.48,1.23a9,9,0,0,1,1.23,2.31V16.11H325.16c0.47,0.32,1.71,1.44,1.71,4.56V31.57c0,3.86-1.88,4.66-1.88,4.66H340.7V30.31a15.52,15.52,0,0,1-1.86,2.82C337.82,34.28,335.11,34.21,334.72,34.21Z"/><path class="cls-1" d="M421.19,36.24s-1.88-.8-1.88-4.66V20.66c0-3.12,1.23-4.24,1.71-4.56h-7.84c0.47,0.32,1.71,1.44,1.71,4.56V31.57c0,3.86-1.88,4.66-1.88,4.66h8.21Z"/><path class="cls-1" d="M90.37,36.24s-1.88-.8-1.88-4.66V20.66c0-3.12,1.23-4.24,1.71-4.56H84.56c0.47,0.32,1.71,1.44,1.71,4.56v8.18L75.06,16.11H70.14c0.47,0.32,1.71,1.44,1.71,4.56V31.57c0,3.86-1.88,4.66-1.88,4.66h6s-1.88-.8-1.88-4.66V22L86,36.24h4.34Z"/><path class="cls-1" d="M193.57,36.24s-1.88-.8-1.88-4.66V20.66c0-3.12,1.23-4.24,1.71-4.56h-7.76c0.47,0.32,1.71,1.44,1.71,4.56V31.57c0,3.86-1.88,4.66-1.88,4.66h8.12Z"/><path class="cls-1" d="M101.54,36.24s-1.88-.8-1.88-4.66V20.66c0-3.12,1.23-4.24,1.71-4.56H93.57c0.47,0.32,1.71,1.44,1.71,4.56V31.57c0,3.86-1.88,4.66-1.88,4.66h8.15Z"/><path class="cls-1" d="M444.43,36.24c-1.72-1.07-2.19-2.09-3.18-4.67-1.67-4.32-4-10.47-5.81-15.34l0-.12H433l-6.4,15.56c-0.7,1.74-2,3.83-3.41,4.57h5.93c-1.21-.5-0.93-2.09-0.44-3.33,0.09-.24.42-1.08,0.88-2.18h6.61L437,33.08a2.77,2.77,0,0,1-.63,3.15h8.08Zm-14-7.79c1.22-2.94,2.59-6.24,2.59-6.24l2.26,6.24h-4.85Z"/><path class="cls-1" d="M176.17,23.83c-2.87-1.35-3.87-2.14-3.93-3.83a2.62,2.62,0,0,1,2.95-2.7,5.73,5.73,0,0,1,5.5,3.51V16.51a21.07,21.07,0,0,0-5.17-.82c-4.38,0-7.32,2.57-7.32,6s2.68,4.85,6,6.45c2.4,1.18,3.73,2,3.73,3.78a2.76,2.76,0,0,1-3,3c-3.32,0-5.7-3.06-6.46-5l0.1,5.12a17.55,17.55,0,0,0,2.86,1.19,12.24,12.24,0,0,0,3.08.46c4.4,0,7.76-2.15,7.76-6.26C182.31,27.35,179.56,25.39,176.17,23.83Z"/><path class="cls-1" d="M281.52,36.24s-1.88-.8-1.88-4.66V27.28h2.48c2.24,0,3.77.13,4.22,1.21V23.71c-0.43,1.08-1.89,1.27-4.22,1.27h-2.48v-6c0-.88,0-0.88,1.11-0.88h3c1.83,0,2.73.3,3.48,1.23a9,9,0,0,1,1.23,2.31V16.11H273.35c0.47,0.32,1.71,1.44,1.71,4.56V31.57c0,3.86-1.88,4.66-1.88,4.66h8.35Z"/><path class="cls-1" d="M207.79,19c0-.88,0-0.88,1.11-0.88h0.94c1.83,0,2.73.3,3.48,1.23a9,9,0,0,1,1.23,2.31V16.11h-18v5.54a9,9,0,0,1,1.23-2.31c0.75-.92,1.65-1.23,3.48-1.23h0.94c1.11,0,1.11,0,1.11.88V31.57c0,3.86-1.88,4.66-1.88,4.66h8.29s-1.88-.8-1.88-4.66V19Z"/><path class="cls-1" d="M63,27.23V20.66c0-3.12-1.23-4.24-1.71-4.56h5.82c-0.47.32-1.71,1.44-1.71,4.56v6.47s0.91,9.44-7.78,9.59c0,0-9,.49-9-7.08v-9c0-3.12-1.23-4.24-1.71-4.56h7.79c-0.47.32-1.71,1.44-1.71,4.56V28.3c0,6.41,4.86,6.25,4.86,6.25S63,35.5,63,27.23Z"/><path class="cls-1" d="M229.21,16.15s2.36,1.25,1.49,3.1l-3,5.87-3.14-5.7a2.44,2.44,0,0,1,.93-3.26h-8.63a9.41,9.41,0,0,1,3.27,3.4l4.47,7.68v4.34c0,3.86-1.88,4.66-1.88,4.66h8.17s-1.88-.8-1.88-4.66V27l3.76-7a8.82,8.82,0,0,1,3.85-3.81h-7.43Z"/><path class="cls-1" d="M157.9,21.92a4.28,4.28,0,0,1-1.44,3.5h0a4.57,4.57,0,0,1-3,.77h-0.59V18.95a1.37,1.37,0,0,1,.2-1,2.23,2.23,0,0,1,1.34-.29C156.09,17.67,157.9,18.79,157.9,21.92Zm4,9.79c-0.89-1.46-2.24-3.64-2.91-4.88a5.3,5.3,0,0,0,3.62-4.9h0c0-.14,0-0.29,0-0.44a4.94,4.94,0,0,0-2.14-4.2c-1.27-.86-2.84-1.17-5.76-1.17h-7.95c0.47,0.32,1.71,1.44,1.71,4.56V31.57c0,3.86-1.89,4.66-1.89,4.66h8.16s-1.89-.8-1.89-4.66V27.75h0.62a2,2,0,0,1,1.95,1.18c0.31,0.55.61,1.1,0.9,1.63,0.57,1,1.3,2.45,1.84,3.27,1.27,1.93,2.29,2.77,6.17,2.65,0,0,.66,0,1.17-0.07C165.49,36.41,164.16,35.44,161.89,31.71Z"/><path class="cls-1" d="M380.2,21.92a4.28,4.28,0,0,1-1.44,3.5h0a4.57,4.57,0,0,1-3,.77h-0.59V18.95a1.37,1.37,0,0,1,.2-1,2.23,2.23,0,0,1,1.34-.29C378.39,17.67,380.2,18.79,380.2,21.92Zm4,9.79c-0.89-1.46-2.24-3.64-2.91-4.88a5.3,5.3,0,0,0,3.62-4.9h0c0-.14,0-0.29,0-0.44a4.94,4.94,0,0,0-2.14-4.2c-1.27-.86-2.84-1.17-5.76-1.17h-7.95c0.47,0.32,1.71,1.44,1.71,4.56V31.57c0,3.86-1.89,4.66-1.89,4.66H377s-1.89-.8-1.89-4.66V27.75h0.62a2,2,0,0,1,1.95,1.18c0.31,0.55.61,1.1,0.9,1.63,0.57,1,1.3,2.45,1.84,3.27,1.27,1.93,2.29,2.77,6.17,2.65,0,0,.66,0,1.17-0.07C387.78,36.41,386.45,35.44,384.18,31.71Z"/><path class="cls-1" d="M34.83,0V37.09c0,7.08-8.85,12.05-17.41,13.51C8.85,49.14,0,44.16,0,37.09V0H34.83Z"/><path class="cls-2" d="M23.4,8.71A9.23,9.23,0,0,0,8.32,13.83H26.4A9.27,9.27,0,0,0,23.4,8.71Z"/><path class="cls-2" d="M15.83,15.66H8.65a0.67,0.67,0,0,0-.57.63V30.92a0.89,0.89,0,0,0,.48.8,0.15,0.15,0,0,1,.08.14v3.77l1.13-1.07h6.07V31.85a0.15,0.15,0,0,1,.08-0.14,0.89,0.89,0,0,0,.48-0.8V16.32A0.67,0.67,0,0,0,15.83,15.66Z"/><path class="cls-2" d="M26.06,15.66H18.87a0.67,0.67,0,0,0-.57.63V30.92a0.89,0.89,0,0,0,.48.8,0.15,0.15,0,0,1,.08.14v3.77L20,34.54h6.07V31.85a0.15,0.15,0,0,1,.08-0.14,0.89,0.89,0,0,0,.48-0.8V16.32A0.67,0.67,0,0,0,26.06,15.66Z"/><path class="cls-3" d="M6.4,44.66a28.41,28.41,0,0,0,11,4.33,28.41,28.41,0,0,0,11-4.33c2.2-1.55,4.83-4.12,4.83-7.58V36.25H29.1v3a0.15,0.15,0,0,1-.15.15H26.23a0.15,0.15,0,0,1-.15-0.15v-3h-7.2v3a0.15,0.15,0,0,1-.15.15H16a0.15,0.15,0,0,1-.15-0.15v-3H8.64v3a0.15,0.15,0,0,1-.15.15H5.77a0.15,0.15,0,0,1-.15-0.15v-3h-4v0.84C1.57,40.54,4.2,43.11,6.4,44.66Z"/><path class="cls-2" d="M5.61,31.85a0.15,0.15,0,0,1,.08-0.14,0.89,0.89,0,0,0,.48-0.8V16.32a0.67,0.67,0,0,0-.57-0.66,0.15,0.15,0,0,1-.13-0.15V14a0.15,0.15,0,0,1,.15-0.15h1.1a10.79,10.79,0,0,1,21.26,0h1.1a0.15,0.15,0,0,1,.15.15v1.52a0.15,0.15,0,0,1-.13.15,0.67,0.67,0,0,0-.58.63V30.92a0.89,0.89,0,0,0,.49.8,0.15,0.15,0,0,1,.08.14v3.77l1.13-1.07h3v-33H1.57v33h4V31.85Z"/><path class="cls-1" d="M12.59,44.74V41.82L11,41.93v0.2h0a0.7,0.7,0,0,1,.5.13,0.43,0.43,0,0,1,.1.33v2.15c0,0.2-.2.24-0.61,0.26v0.21H13.2V45C12.79,45,12.59,44.94,12.59,44.74Z"/><path class="cls-1" d="M14.36,43.07a0.55,0.55,0,0,1,.69-0.52h1.22l0,0-1.81,2.49v0.19h0.7l0.69-1.38,1-1.69V41.83H14.2l0,1.24h0.19Z"/><path class="cls-1" d="M19.53,43.29l0,0a0.83,0.83,0,0,0,.67-0.72A1,1,0,0,0,19,41.75a1.13,1.13,0,0,0-1.32,1.05,1,1,0,0,0,.56.83l0,0h0a0.86,0.86,0,0,0-.66.77c0,0.55.52,0.86,1.43,0.86a1.2,1.2,0,0,0,1.35-1.06,1,1,0,0,0-.78-0.93ZM18.92,42a0.58,0.58,0,0,1,.65.58,0.89,0.89,0,0,1-.26.64h0a1,1,0,0,1-.88-0.75A0.47,0.47,0,0,1,18.92,42ZM19,45.07a0.72,0.72,0,0,1-.72-0.71,0.82,0.82,0,0,1,.24-0.59h0l0.18,0.06c0.64,0.21.87,0.4,0.87,0.7A0.53,0.53,0,0,1,19,45.07Z"/><path class="cls-1" d="M22.76,43.17a1.83,1.83,0,0,0-.8.16h0v0l0-.79h1.86l0.05-.69H21.65l-0.07,1.68,0.17,0.13a1.43,1.43,0,0,1,.74-0.21,0.68,0.68,0,0,1,.71.78,0.69,0.69,0,0,1-.71.84A1,1,0,0,1,22,44.94l0,0h0a0.48,0.48,0,0,0,.25-0.41A0.42,0.42,0,0,0,21.85,44a0.45,0.45,0,0,0-.48.47c0,0.49.5,0.78,1.34,0.78A1.18,1.18,0,0,0,24,44.17,1.1,1.1,0,0,0,22.76,43.17Z"/><path class="cls-1" d="M32.33,45.51H31.95V45.26H33v0.26H32.62v1H32.33v-1Zm0.95-.26h0.31l0.34,0.54,0.34-.54h0.3v1.28H34.29V45.67l-0.35.56h0l-0.35-.56v0.87H33.28V45.26Z"/></svg>